<?xml version="1.0" encoding="utf-8"?>
<svg fill="#000000" viewBox="0 0 64 64" width="64px" height="64px" xmlns="http://www.w3.org/2000/svg">
  <path d="M16 54c.6 0 1-.4 1-1v-2c0-.6-.4-1-1-1s-1 .4-1 1v2C15 53.6 15.4 54 16 54zM11 54c.6 0 1-.4 1-1v-2c0-.6-.4-1-1-1s-1 .4-1 1v2C10 53.6 10.4 54 11 54zM46 54c.6 0 1-.4 1-1v-2c0-.6-.4-1-1-1s-1 .4-1 1v2C45 53.6 45.4 54 46 54zM51 54c.6 0 1-.4 1-1v-2c0-.6-.4-1-1-1s-1 .4-1 1v2C50 53.6 50.4 54 51 54zM26 24c0 2.8 2.2 5 5 5s5-2.2 5-5-2.2-5-5-5S26 21.2 26 24zM34.2 24c0 1.8-1.4 3.2-3.2 3.2s-3.2-1.4-3.2-3.2 1.4-3.2 3.2-3.2S34.2 22.2 34.2 24zM33 49c.6 0 1-.4 1-1v-2c0-.6-.4-1-1-1s-1 .4-1 1v2C32 48.6 32.4 49 33 49z" style="fill: rgb(197, 12, 12);"/>
  <path d="M56.7,35.4c0.9,0.7,2.1,0.6,2.8-0.3c0.3-0.4,0.5-0.8,0.5-1.3V31c0-0.9-0.4-1.8-1.1-2.3l-26-21.4c-1.1-0.9-2.7-0.9-3.8,0L18,16.4v-3.3c0-0.6-0.4-1-1-1s-1,0.4-1,1v5l-2,1.6V9.1c0-0.6-0.4-1-1-1s-1,0.4-1,1v12c0,0.1,0,0.1,0,0.2l-8.9,7.4C2.4,29.2,2,30.1,2,31v2.9c0,0.8,0.4,1.5,1.2,1.8c0.7,0.3,1.5,0.2,2.1-0.3L6,34.8V56H3c-0.6,0-1,0.4-1,1s0.4,1,1,1h56c0.6,0,1-0.4,1-1s-0.4-1-1-1h-3V34.8L56.7,35.4z M24,56h-2h-2H8v-8h16V56z M36,56H26V38h10V56z M54,56H42h-2h-2v-8h16V56z M54,38v8H38v-8c0-1.1-0.9-2-2-2H26c-1.1,0-2,0.9-2,2v8H8v-8v-4.8l23-18.9l23,18.9V38z M32.3,12.8c-0.7-0.6-1.8-0.6-2.5,0L4,33.9V31c0-0.3,0.1-0.6,0.4-0.8l26-21.4c0.4-0.3,0.9-0.3,1.3,0l26,21.4c0.2,0.2,0.4,0.5,0.4,0.8v2.9L32.3,12.8z" style="fill: rgb(197, 12, 12);"/>
  <path d="M21 54c.6 0 1-.4 1-1v-2c0-.6-.4-1-1-1s-1 .4-1 1v2C20 53.6 20.4 54 21 54zM41 54c.6 0 1-.4 1-1v-2c0-.6-.4-1-1-1s-1 .4-1 1v2C40 53.6 40.4 54 41 54z" style="fill: rgb(164, 7, 7);"/>
</svg>