<?xml version="1.0" encoding="utf-8"?>
<svg version="1.1" id="Layer_1" x="0px" y="0px" viewBox="0 0 122.88 116.31" style="enable-background:new 0 0 122.88 116.31" xmlns="http://www.w3.org/2000/svg">
  <g>
    <path d="M 4.06 12.67 C 1.87 12.67 0.449 11.548 0.449 9.258 C 0.449 7.068 2.169 6.246 4.359 6.246 L 9.081 6.246 C 9.181 6.246 9.84 6.246 9.95 6.246 C 13.7 6.346 15.384 6.178 18.184 7.948 C 21.304 9.928 23.444 11.292 24.694 15.772 C 24.694 15.872 24.994 16.58 25.094 16.68 L 26.134 21 L 30.12 21 L 30.12 4.12 C 30.12 1.85 31.97 0 34.24 0 L 55.91 0 C 58.18 0 60.03 1.85 60.03 4.12 L 60.03 14.14 C 63.45 10.73 68.09 8.64 73.21 8.64 C 75.43 8.64 77.57 9.04 79.55 9.76 C 83.63 5.43 89.42 2.72 95.84 2.72 C 106.8 2.72 115.91 10.6 117.83 21 L 118.82 21 C 121.11 21 122.88 22.87 122.88 25.06 C 122.88 25.48 122.77 25.89 122.67 26.31 L 112.06 69.07 C 111.64 70.94 109.98 72.19 108.11 72.19 L 39.864 72.19 C 41.324 77.6 43.372 81.857 45.352 83.217 C 47.742 84.777 52.511 85.176 59.481 85.076 L 60.18 85.076 L 106.611 85.076 C 108.901 85.076 110.222 85.899 110.222 88.089 C 110.222 90.379 109.25 91.55 107.06 91.55 L 60.04 91.55 C 51.4 91.65 46.1 91.45 41.83 88.64 C 37.46 85.73 35.17 80.73 32.88 71.68 L 18.94 18.92 C 18.94 18.82 18.94 18.82 18.84 18.71 C 18.22 16.42 17.18 14.86 15.72 14.03 C 14.26 13.09 12.29 12.68 10 12.68 C 9.9 12.68 9.79 12.68 9.69 12.68 L 4.06 12.68 L 4.06 12.67 Z M 84.38 37.69 C 84.38 36.41 85.65 35.37 87.21 35.37 C 88.77 35.37 90.04 36.41 90.04 37.69 L 90.04 53.38 C 90.04 54.66 88.77 55.7 87.21 55.7 C 85.65 55.7 84.38 54.66 84.38 53.38 L 84.38 37.69 Z M 67.43 37.69 C 67.43 36.41 68.7 35.37 70.26 35.37 C 71.82 35.37 73.09 36.41 73.09 37.69 L 73.09 53.38 C 73.09 54.66 71.82 55.7 70.26 55.7 C 68.7 55.7 67.43 54.66 67.43 53.38 L 67.43 37.69 Z M 50.49 37.69 C 50.49 36.41 51.76 35.37 53.32 35.37 C 54.88 35.37 56.15 36.41 56.15 37.69 L 56.15 53.38 C 56.15 54.66 54.88 55.7 53.32 55.7 C 51.76 55.7 50.49 54.66 50.49 53.38 L 50.49 37.69 Z M 84.522 12.173 C 86.832 14.223 89.71 18.03 90.86 21 L 112.955 21 C 111.275 14.35 103.309 7.774 96.139 7.774 C 92.189 7.774 87.242 9.713 84.522 12.173 Z M 92.809 27.763 L 54.35 27.613 L 27.975 27.464 L 37.983 66.215 L 106.776 66.215 L 116.004 28.063 L 92.809 27.763 Z M 55.31 21 C 55.42 20.71 55.54 20.43 55.66 20.15 L 55.66 7.2 C 55.66 5.56 54.31 4.21 52.67 4.21 L 37.71 4.21 C 36.07 4.21 34.72 5.55 34.72 7.2 L 34.72 21 L 55.31 21 Z M 94.89 96.33 C 100.41 96.33 104.88 100.8 104.88 106.32 C 104.88 111.84 100.41 116.31 94.89 116.31 C 89.38 116.31 84.9 111.84 84.9 106.32 C 84.9 100.8 89.38 96.33 94.89 96.33 Z M 51.09 96.33 C 56.6 96.33 61.08 100.8 61.08 106.32 C 61.08 111.84 56.61 116.31 51.09 116.31 C 45.57 116.31 41.1 111.84 41.1 106.32 C 41.1 100.8 45.57 96.33 51.09 96.33 Z" style="fill: rgb(197, 12, 12);"/>
  </g>
</svg>