<?xml version="1.0" encoding="UTF-8"?>
<svg xmlns="http://www.w3.org/2000/svg" xmlns:xlink="http://www.w3.org/1999/xlink" width="150pt" height="166pt" viewBox="0 0 150 166" version="1.1">
<g id="surface1">
<path style=" stroke:none;fill-rule:nonzero;fill:rgb(77.254902%,4.705882%,4.705882%);fill-opacity:1;" d="M 133.984375 27.292969 C 134.351562 27.46875 134.675781 27.699219 134.988281 27.996094 C 135.066406 28.074219 135.136719 28.15625 135.203125 28.238281 C 139.113281 31.332031 143.019531 34.832031 145.859375 39.042969 C 149 43.703125 150.742188 49.09375 149.6875 55.484375 C 149.242188 58.160156 148.226562 60.496094 146.6875 62.5625 C 145.578125 64.035156 144.222656 65.332031 142.628906 66.464844 C 142.546875 68.53125 142.519531 70.558594 142.519531 72.570312 C 142.535156 75.152344 142.613281 77.8125 142.765625 80.542969 C 143.101562 86.945312 144.0625 93.402344 145.023438 99.804688 C 146.050781 106.691406 147.078125 113.527344 147.347656 120.648438 C 147.714844 129.765625 146.632812 137.261719 143.617188 142.558594 C 140.261719 148.472656 134.8125 151.632812 126.777344 151.351562 C 117.1875 151.175781 111.289062 145.800781 108.625 135.871094 C 106.296875 127.183594 106.648438 114.785156 109.289062 99.183594 C 109.207031 86.824219 107.597656 77.460938 104.40625 71.152344 C 102.320312 67.035156 99.496094 64.304688 95.925781 63.007812 L 95.925781 143.933594 C 97.085938 144.488281 98.140625 145.246094 99.035156 146.148438 C 101.089844 148.203125 102.375 151.054688 102.375 154.1875 L 102.375 162.265625 C 102.375 164.304688 100.710938 165.964844 98.671875 165.964844 L 3.707031 165.964844 C 1.664062 165.964844 0 164.304688 0 162.265625 L 0 154.1875 C 0 151.054688 1.285156 148.21875 3.339844 146.148438 C 3.976562 145.515625 4.695312 144.949219 5.464844 144.476562 L 5.464844 19.621094 C 5.464844 14.214844 7.667969 9.3125 11.226562 5.761719 C 14.785156 2.207031 19.695312 0.0078125 25.105469 0.0078125 L 76.203125 0.0078125 C 81.628906 0.0078125 86.566406 2.222656 90.136719 5.789062 C 93.707031 9.355469 95.925781 14.285156 95.925781 19.714844 L 95.925781 55.320312 C 102.496094 56.753906 107.515625 60.953125 111.003906 67.84375 C 114.753906 75.234375 116.617188 85.824219 116.671875 99.535156 C 116.671875 99.75 116.660156 99.964844 116.617188 100.167969 L 116.632812 100.167969 C 114.128906 114.851562 113.722656 126.308594 115.78125 133.964844 C 117.496094 140.410156 121.121094 143.894531 126.925781 143.976562 L 126.992188 143.976562 C 131.941406 144.136719 135.230469 142.328125 137.164062 138.910156 C 139.449219 134.882812 140.246094 128.710938 139.9375 120.929688 C 139.679688 114.339844 138.664062 107.625 137.664062 100.871094 C 136.691406 94.359375 135.71875 87.796875 135.351562 80.90625 C 135.203125 78.191406 135.121094 75.421875 135.109375 72.558594 C 135.09375 70.289062 135.136719 68.046875 135.230469 65.84375 C 128.316406 59.792969 124.113281 53.742188 122.8125 47.71875 C 121.582031 42.003906 122.882812 36.519531 126.871094 31.277344 C 123.828125 29.195312 120.730469 27.496094 117.59375 26.132812 C 113.304688 24.265625 108.894531 23.011719 104.40625 22.28125 C 102.390625 21.957031 101.023438 20.050781 101.347656 18.039062 C 101.671875 16.027344 103.578125 14.664062 105.59375 14.988281 C 110.679688 15.8125 115.671875 17.230469 120.554688 19.351562 C 125.167969 21.375 129.644531 23.984375 133.984375 27.292969 Z M 88.511719 59.753906 C 88.351562 59.292969 88.269531 58.808594 88.308594 58.292969 C 88.335938 57.929688 88.402344 57.589844 88.511719 57.265625 L 88.511719 19.714844 C 88.511719 16.335938 87.117188 13.257812 84.886719 11.027344 C 82.65625 8.800781 79.570312 7.410156 76.191406 7.410156 L 25.105469 7.410156 C 21.75 7.410156 18.691406 8.785156 16.472656 11 C 14.257812 13.21875 12.875 16.269531 12.875 19.621094 L 12.875 142.839844 L 88.511719 142.839844 Z M 92.542969 150.566406 C 92.433594 150.582031 92.339844 150.582031 92.230469 150.582031 L 9.820312 150.582031 C 9.359375 150.785156 8.941406 151.066406 8.589844 151.417969 C 7.871094 152.132812 7.425781 153.121094 7.425781 154.214844 L 7.425781 158.589844 L 94.976562 158.589844 L 94.976562 154.214844 C 94.976562 153.132812 94.53125 152.148438 93.8125 151.417969 C 93.449219 151.054688 93.015625 150.769531 92.542969 150.566406 Z M 31.164062 18.566406 L 70.984375 18.566406 C 73.050781 18.566406 74.933594 19.402344 76.285156 20.769531 C 76.378906 20.863281 76.472656 20.957031 76.554688 21.066406 C 77.757812 22.402344 78.488281 24.160156 78.488281 26.0625 L 78.488281 51.429688 C 78.488281 53.5 77.652344 55.375 76.285156 56.726562 C 74.933594 58.078125 73.050781 58.929688 70.984375 58.929688 L 31.164062 58.929688 C 29.105469 58.929688 27.242188 58.078125 25.875 56.726562 L 25.859375 56.742188 C 24.507812 55.390625 23.65625 53.511719 23.65625 51.445312 L 23.65625 26.0625 C 23.65625 23.996094 24.496094 22.117188 25.859375 20.769531 C 25.957031 20.671875 26.050781 20.578125 26.160156 20.496094 C 27.496094 19.296875 29.257812 18.566406 31.164062 18.566406 Z M 70.984375 25.96875 L 31.164062 25.96875 C 31.148438 25.96875 31.136719 25.96875 31.136719 25.96875 L 31.109375 25.996094 C 31.09375 26.007812 31.082031 26.035156 31.082031 26.050781 L 31.082031 51.417969 C 31.082031 51.429688 31.09375 51.457031 31.109375 51.472656 L 31.109375 51.5 C 31.121094 51.511719 31.136719 51.511719 31.164062 51.511719 L 70.984375 51.511719 C 70.996094 51.511719 71.023438 51.5 71.035156 51.484375 C 71.050781 51.472656 71.0625 51.445312 71.0625 51.429688 L 71.0625 26.0625 C 71.0625 26.050781 71.0625 26.035156 71.0625 26.035156 L 71.035156 26.007812 C 71.023438 25.980469 71.011719 25.96875 70.984375 25.96875 Z M 132.753906 35.800781 C 130.171875 39.261719 129.304688 42.71875 130.0625 46.203125 C 130.96875 50.417969 134.121094 54.902344 139.367188 59.644531 C 139.894531 59.171875 140.371094 58.671875 140.761719 58.144531 C 141.585938 57.050781 142.140625 55.769531 142.371094 54.308594 C 143.074219 50.039062 141.871094 46.378906 139.707031 43.164062 C 137.921875 40.488281 135.433594 38.046875 132.753906 35.800781 Z M 132.753906 35.800781 "/>
</g>
</svg>
