<?xml version="1.0" encoding="utf-8"?>
<svg viewBox="-13.284 100.664 545.438 470.639" xmlns="http://www.w3.org/2000/svg">
  <g transform="matrix(-2.169025, -0.057146, -0.093962, 1.987406, 512.860535, 313.581757)" style="">
    <path d="M96.54,57.98c-0.89-0.59-1.89-0.87-2.89-0.87l0.79-1.19c0.8-1.22,1.04-2.65,0.77-3.98c-0.27-1.33-1.05-2.56-2.27-3.36 c0,0,0,0,0,0c-0.9-0.6-1.97-0.9-3.05-0.87l0.64-0.96c0.8-1.22,1.04-2.65,0.77-3.98c-0.27-1.33-1.05-2.56-2.27-3.36 c-1.22-0.8-2.65-1.04-3.98-0.77c-1.33,0.27-2.56,1.05-3.36,2.27l-0.64,0.98c-0.39-0.95-1.06-1.8-1.97-2.4 c-1.22-0.8-2.65-1.04-3.98-0.77c-1.33,0.27-2.56,1.05-3.36,2.27L57.83,61.98c-0.3,0.33-0.57,0.68-0.82,1.05l0,0l-0.82,1.24 l-0.04-0.18c-0.29-1.22-0.54-2.45-0.64-2.92c-0.64-3.13-2.4-4.88-4.35-5.43c-0.88-0.25-1.78-0.25-2.64-0.04 c-0.85,0.22-1.66,0.65-2.34,1.29c-1.61,1.5-2.52,4.14-1.61,7.59l0.01,0.06l0,0l0,0.01c0.72,3.63,1.02,11.81,3.22,17.59L35.57,97.12 c-0.23,0.27-0.62,0.7-0.99,1.12c-2.72,3.04-4.5,5.03-2.3,10.06c0.82,1.87,2.16,3.7,3.84,5.4c3.12,3.15,7.43,5.87,11.62,7.51 c4.32,1.69,8.58,2.25,11.45,1c0.67-0.29,1.26-0.68,1.77-1.17c0.12-0.11,0.23-0.24,0.3-0.4l10.61-23.04 c3.32-2.08,7.13-3.44,9.28-6.7l5.48-8.29c0.19-0.29,0.36-0.59,0.52-0.89c0.09-0.08,0.17-0.17,0.24-0.27c0,0,0.01-0.01,0.01-0.01 l10.64-16.11c0.8-1.22,1.04-2.65,0.77-3.98C98.54,60.01,97.76,58.78,96.54,57.98L96.54,57.98L96.54,57.98z M5.24,11.56 c1.06-0.01,2.06,0.29,2.9,0.83l-0.02-1.43C8.1,9.5,8.68,8.17,9.63,7.2c0.95-0.97,2.27-1.58,3.73-1.6c0,0,0,0,0.01,0 c1.08-0.01,2.14,0.31,3.04,0.92l-0.01-1.15c-0.02-1.46,0.56-2.79,1.51-3.76c0.95-0.97,2.27-1.58,3.73-1.6 c1.46-0.02,2.79,0.56,3.76,1.51c0.97,0.95,1.58,2.27,1.6,3.73L27,6.41c0.84-0.59,1.86-0.94,2.96-0.95 c1.46-0.02,2.79,0.56,3.76,1.51c0.97,0.95,1.58,2.27,1.6,3.73l0.3,25.19c0.07,0.44,0.11,0.88,0.12,1.33l0,0l0.02,1.48l0.13-0.13 c0.9-0.87,1.78-1.77,2.11-2.11c2.23-2.29,4.66-2.8,6.6-2.21c0.87,0.27,1.64,0.75,2.24,1.4c0.6,0.64,1.04,1.45,1.27,2.35 c0.54,2.14-0.12,4.84-2.75,7.25l-0.04,0.04l0,0l-0.01,0.01c-2.57,2.66-7.25,9.38-12.23,13.05l2.26,19.13 c0.05,0.35,0.14,0.93,0.23,1.48c0.64,4.03,1.06,6.66-3.51,9.7c-1.7,1.13-3.82,1.94-6.15,2.46c-4.33,0.96-9.42,0.92-13.83,0.03 c-4.55-0.92-8.44-2.75-10.17-5.36c-0.4-0.61-0.69-1.25-0.86-1.94c-0.05-0.16-0.06-0.32-0.04-0.5l3.54-25.12 c-1.66-3.55-4.13-6.75-4.18-10.65l-0.12-9.94c0-0.35,0.01-0.69,0.04-1.03c-0.04-0.12-0.06-0.24-0.06-0.36c0,0,0-0.01,0-0.01 L0,16.93c-0.02-1.46,0.56-2.79,1.51-3.76C2.46,12.19,3.78,11.58,5.24,11.56L5.24,11.56L5.24,11.56z M30.39,57.77 c4.64-3.93,11.45-12.34,13.19-14.14c0.04-0.04,0.08-0.08,0.12-0.12l0.81,0.89l-0.81-0.89c1.91-1.73,2.42-3.56,2.08-4.94 c-0.13-0.5-0.37-0.94-0.69-1.29c-0.32-0.35-0.72-0.6-1.18-0.74c-1.15-0.35-2.66,0.04-4.18,1.59c-0.35,0.35-1.27,1.3-2.17,2.17 c-0.85,0.81-1.72,1.6-2.29,1.93c-0.19,0.13-0.42,0.21-0.66,0.21c0,0,0,0,0,0l-0.96-0.45l-0.34-4.74 c-0.11-8.88-0.28-17.61-0.38-26.52c-0.01-0.79-0.34-1.51-0.88-2.03c-0.53-0.52-1.26-0.83-2.05-0.82c-0.79,0.01-1.51,0.34-2.03,0.87 c-0.52,0.53-0.84,1.26-0.83,2.05l0.21,17.28l-2.49,0.03L24.58,5.27c-0.01-0.79-0.34-1.51-0.87-2.03c-0.53-0.52-1.26-0.84-2.05-0.83 s-1.51,0.34-2.03,0.88c-0.52,0.53-0.84,1.26-0.83,2.05l0.27,22.83l-2.55,0.03l-0.21-17.34c-0.01-0.79-0.34-1.51-0.88-2.03 C14.91,8.31,14.18,8,13.39,8.01c-0.79,0.01-1.51,0.34-2.03,0.88c-0.52,0.53-0.84,1.26-0.83,2.05l0.21,17.34L8.33,28.3L8.19,16.83 c-0.01-0.79-0.34-1.51-0.87-2.03c-0.53-0.52-1.26-0.84-2.05-0.83c-0.79,0.01-1.51,0.34-2.03,0.88c-0.52,0.53-0.83,1.26-0.82,2.05 l0.14,11.47l0.02,1.78l0.09,7.21c0,0.08,0,0.16,0,0.25l0.12,9.94c0.03,2.67,2.83,7.43,4.04,10.01c0.1,0.21,0.13,0.44,0.1,0.65h0 L3.35,83.45c0.1,0.36,0.27,0.7,0.49,1.04c1.37,2.06,4.7,3.56,8.68,4.36c4.12,0.83,8.86,0.87,12.87-0.02 c2.06-0.46,3.91-1.16,5.36-2.12c3.32-2.21,2.99-4.26,2.49-7.39c-0.06-0.4-0.13-0.83-0.23-1.52L30.39,57.77L30.39,57.77z M2.59,31.46L2.59,31.46L2.59,31.46L2.59,31.46L2.59,31.46L2.59,31.46z M50.39,83.23c-1.78-5.82-2.95-16.57-3.44-19.03 c-0.01-0.06-0.02-0.11-0.03-0.17l-1.16,0.31l1.16-0.31c-0.67-2.49-0.11-4.3,0.93-5.27c0.38-0.35,0.82-0.6,1.28-0.71 c0.46-0.12,0.94-0.12,1.39,0.01c1.15,0.33,2.22,1.47,2.65,3.6c0.1,0.49,0.36,1.78,0.65,3c0.27,1.14,0.59,2.27,0.89,2.86 c0.09,0.22,0.25,0.4,0.44,0.53c0,0,0,0,0,0l1.05,0.14l2.86-3.8c4.89-7.41,9.76-14.66,14.67-22.09c0.44-0.66,1.11-1.09,1.83-1.23 c0.73-0.15,1.51-0.02,2.17,0.42c0.66,0.44,1.09,1.11,1.23,1.83c0.15,0.73,0.02,1.51-0.42,2.17L69.02,59.9l2.08,1.37l12.59-19.05 c0.44-0.66,1.11-1.09,1.83-1.23c0.73-0.15,1.51-0.02,2.17,0.41c0.66,0.44,1.09,1.11,1.23,1.83c0.15,0.73,0.02,1.51-0.42,2.17 L75.93,64.46l2.13,1.4l9.56-14.47c0.44-0.66,1.11-1.09,1.83-1.23c0.73-0.15,1.51-0.02,2.17,0.42c0.66,0.44,1.09,1.11,1.23,1.83 c0.15,0.73,0.02,1.51-0.42,2.17l-9.56,14.47l2.01,1.33l6.32-9.57c0.44-0.66,1.11-1.09,1.83-1.23c0.73-0.15,1.51-0.02,2.17,0.42 c0.66,0.44,1.09,1.11,1.23,1.84c0.15,0.73,0.02,1.51-0.42,2.17l-6.32,9.57l-0.98,1.49l-3.98,6.02c-0.04,0.07-0.09,0.14-0.13,0.21 l-5.48,8.29c-1.47,2.23-6.4,4.71-8.81,6.23c-0.2,0.12-0.34,0.3-0.44,0.5l0,0l-10.67,23.15c-0.28,0.25-0.61,0.45-0.97,0.61 c-2.26,0.99-5.88,0.45-9.66-1.03c-3.91-1.53-7.92-4.06-10.82-6.98c-1.48-1.5-2.66-3.09-3.36-4.68c-1.6-3.65-0.21-5.2,1.9-7.57 c0.27-0.31,0.56-0.62,1.02-1.16L50.39,83.23L50.39,83.23z M88.01,76.14L88.01,76.14L88.01,76.14L88.01,76.14L88.01,76.14 L88.01,76.14z" style="fill: rgb(196, 22, 22);"/>
  </g>
  <g transform="matrix(2.094761, 0.207224, -0.069073, 1.80105, 6.006243, 321.976105)" style="">
    <path d="M76.31,77.1V25.9c0-0.53,0.43-0.96,0.96-0.96h0.02h32.86c0.53,0,0.96,0.43,0.96,0.96v0.02v50.71v14.27v0.01v0.2 c0,0.29-0.13,0.55-0.33,0.73l-10.1,10.03c-0.14,0.13-0.3,0.22-0.47,0.26l-13.34,13.25c-7.38,7.33-14.97,8.66-20.95,6.64 c-2.39-0.8-4.51-2.14-6.27-3.84c-1.75-1.7-3.13-3.76-4.03-6.03c-2.22-5.59-1.52-12.4,3.76-17.92l0.03-0.03L76.31,77.1L76.31,77.1z M21.89,52.16V0.96c0-0.53,0.43-0.96,0.96-0.96h0.02h32.86c0.53,0,0.96,0.43,0.96,0.96v0.02v64.98c0,0.29-0.13,0.55-0.33,0.73 L32.44,90.44c-7.38,7.33-14.97,8.66-20.95,6.65c-2.39-0.8-4.51-2.14-6.27-3.84c-1.75-1.7-3.13-3.76-4.03-6.03 c-2.22-5.59-1.52-12.4,3.76-17.92l0.03-0.03L21.89,52.16L21.89,52.16z M54.77,12.58H23.8v39.97h0c0,0.24-0.09,0.48-0.27,0.67 L6.33,70.6l0,0C1.63,75.53,1,81.56,2.96,86.51c0.8,2.01,2.03,3.85,3.59,5.37c1.55,1.51,3.44,2.69,5.54,3.4 c5.36,1.8,12.22,0.54,19-6.19l12.93-12.84c-1.43-1.31-2.61-2.9-3.44-4.69c-0.9-1.92-1.4-4.05-1.4-6.29c0-4.11,1.67-7.83,4.36-10.52 l0,0l0,0l0,0c2.7-2.69,6.42-4.36,10.52-4.36c0.17,0,0.39,0.01,0.65,0.02h0l0.05,0V12.58L54.77,12.58z M54.32,65.48V52.3l-0.26,0 c-3.58,0-6.83,1.45-9.17,3.8l0,0c-2.34,2.34-3.8,5.59-3.8,9.17c0,1.97,0.43,3.83,1.21,5.49c0.68,1.46,1.64,2.78,2.8,3.89 L54.32,65.48L54.32,65.48z M98.5,101.13c-1.26-1.24-2.3-2.7-3.06-4.32c-0.9-1.92-1.4-4.05-1.4-6.29c0-4.11,1.67-7.83,4.36-10.52 l0,0l0,0l0,0c2.7-2.69,6.42-4.36,10.52-4.36l0.26,0V37.52H78.23v39.97h0c0,0.24-0.09,0.48-0.27,0.67L60.76,95.55l0,0 c-4.71,4.92-5.34,10.96-3.37,15.91c0.8,2.01,2.03,3.85,3.59,5.37c1.55,1.51,3.44,2.69,5.54,3.4c5.36,1.8,12.22,0.54,19-6.19 L98.5,101.13L98.5,101.13z M109.19,77.54l-0.26,0c-3.58,0-6.83,1.45-9.17,3.8l0,0c-2.35,2.34-3.8,5.59-3.8,9.17 c0,1.97,0.43,3.83,1.21,5.49c0.66,1.42,1.58,2.7,2.69,3.78l9.33-9.27V77.54L109.19,77.54z" style="fill: rgb(196, 22, 22);"/>
  </g>
  <g transform="matrix(2.160463, 0, 0, 2.34529, 129.23941, 107.898445)" style="">
    <path d="M37.85,8.68l23.59,7.73c2.65-0.87,4.87-1.61,7.09-2.35c5.43-1.81,10.87-3.63,16.18-5.28c1.99-0.62,3.3-1.41,3.9-2.21 c0.19-0.25,0.28-0.47,0.27-0.64c-0.01-0.15-0.1-0.31-0.28-0.49c-0.58-0.56-1.76-1.02-3.6-1.27c-8.03-1.06-16.07-1.61-24.11-1.61 C53.03,2.58,45.16,3.12,37.3,4.22c-1.68,0.24-2.75,0.65-3.27,1.16c-0.16,0.16-0.24,0.3-0.25,0.43c0,0.18,0.09,0.4,0.28,0.65 C34.66,7.26,35.95,8.06,37.85,8.68L37.85,8.68z M70.91,79.54c-0.03-0.71,0.52-1.31,1.23-1.35c0.71-0.03,1.31,0.52,1.35,1.23 c0.17,3.6,1.08,6.18,2.69,7.76c1.57,1.55,3.92,2.2,7.03,1.97c0.71-0.05,1.33,0.49,1.38,1.2c0.05,0.71-0.49,1.33-1.2,1.38 c-3.87,0.28-6.88-0.61-9.02-2.71C72.27,86.97,71.11,83.81,70.91,79.54L70.91,79.54z M49.52,79.42c0.03-0.71,0.64-1.26,1.35-1.23 c0.71,0.03,1.26,0.64,1.23,1.35c-0.21,4.27-1.37,7.43-3.46,9.48c-2.13,2.09-5.14,2.99-9.02,2.71c-0.71-0.05-1.25-0.67-1.2-1.38 s0.67-1.25,1.38-1.2c3.1,0.23,5.45-0.42,7.03-1.97C48.44,85.6,49.34,83.02,49.52,79.42L49.52,79.42z M18.56,17.67 c0.02-0.04,0.05-0.07,0.07-0.11c2.22-2.86,4.98-4.97,8.18-6.32c2.12-0.89,4.43-1.45,6.92-1.67C32.99,9.09,32.41,8.55,32,8 c-0.54-0.72-0.82-1.49-0.8-2.26c0.02-0.82,0.36-1.58,1.04-2.23c0.89-0.86,2.44-1.54,4.71-1.85C44.9,0.55,52.89,0.01,60.88,0 c8.15-0.01,16.31,0.55,24.44,1.63c2.43,0.32,4.1,1.04,5.06,1.96c0.68,0.65,1.03,1.42,1.07,2.23c0.04,0.79-0.23,1.57-0.79,2.31 c-0.38,0.5-0.9,0.99-1.57,1.44c2.57,0.2,4.94,0.75,7.1,1.67c3.15,1.34,5.84,3.45,8.07,6.32c0.05,0.06,0.09,0.13,0.13,0.2l0.01,0.03 l18.27,27.72c0.17,0.26,0.24,0.57,0.2,0.86l0,0l-5.64,47.3c-0.08,0.65-0.63,1.13-1.27,1.14l-0.02,0v0h-0.01h-13.2h-0.01 c-0.71,0-1.29-0.58-1.29-1.29c0-0.03,0-0.07,0-0.1l-0.09-9.59c0-0.06,0-0.12,0.01-0.18l-0.26-27.34l-7.17-8.46v53.63v9.99 c0,0.71-0.58,1.29-1.29,1.29H30.16c-0.71,0-1.29-0.58-1.29-1.29v-9.99V47.46l-7.1,8.82l-0.26,27.54l0,0l-0.09,9.59l0,0v0l0,0v0l0,0 v0l0,0v0l0,0v0v0v0l0,0l0,0v0v0l0,0v0v0l0,0l0,0v0v0v0l0,0v0v0l0,0v0v0l0,0v0v0l0,0l0,0v0v0v0v0l0,0l0,0v0v0v0v0l0,0v0l0,0v0v0v0v0 v0l0,0v0v0v0l0,0v0v0l0,0v0v0v0v0v0v0v0v0v0v0l0,0v0v0v0v0v0v0v0v0c0,0.71-0.58,1.29-1.29,1.29H6.92v0c-0.65,0-1.2-0.48-1.28-1.14 l-1.15-9.65l0,0c-0.01-0.04-0.01-0.07-0.01-0.11l0,0L0,46.37l0,0c-0.03-0.29,0.03-0.59,0.2-0.86L18.48,17.8 C18.5,17.75,18.53,17.72,18.56,17.67L18.56,17.67L18.56,17.67L18.56,17.67L18.56,17.67z M36.51,12.05c-3.21-0.03-6.12,0.5-8.7,1.58 c-2.42,1.02-4.55,2.53-6.33,4.53c3.45,2.55,6.01,5.25,7.7,8.96c1.83,4.02,2.59,9.18,2.27,16.57l0,0.05v56.44h28.75V27.09 c-4.57-1.04-11.03-3.38-16.05-6.57C40.45,18.15,37.49,15.29,36.51,12.05L36.51,12.05z M101.44,18.21 c-1.79-2.04-3.88-3.57-6.27-4.59c-2.52-1.08-5.4-1.59-8.63-1.54c-0.99,3.23-3.94,6.08-7.64,8.44c-5.04,3.21-11.54,5.55-16.11,6.59 v73.08h28.55V45.16h0c-0.04-1.29-0.04-2.55,0-3.77c0-5.84,0.8-10.17,2.4-13.71c1.62-3.61,4.02-6.36,7.17-9.02 C101.09,18.51,101.27,18.36,101.44,18.21L101.44,18.21z M39.15,11.83c0.94,2.37,3.37,4.59,6.39,6.52 c4.55,2.9,10.37,5.05,14.67,6.09v-5.71L39.15,11.83L39.15,11.83z M62.8,18.68v5.77c4.3-1.04,10.15-3.2,14.72-6.11 c3.06-1.95,5.52-4.21,6.43-6.62c-4.93,1.55-9.77,3.17-14.61,4.78C67.06,17.27,64.77,18.03,62.8,18.68L62.8,18.68z M103.93,82.53 h12.04l4.29-35.99l-17.28-26.22c-0.17,0.14-0.34,0.29-0.51,0.43c-2.93,2.63-5.04,5.72-6.43,9.32c-1.28,3.31-1.95,7.08-2.1,11.33 c0,0.81,0.02,1.65,0.05,2.52l9.39,11.08l0,0c0.19,0.22,0.3,0.51,0.3,0.82L103.93,82.53L103.93,82.53z M6.91,82.53h12.04l0.25-26.71 c0-0.3,0.11-0.58,0.28-0.8l0,0l9.41-11.69c0.27-6.81-0.42-11.52-2.06-15.13c-1.48-3.25-3.77-5.65-6.88-7.96L2.62,46.53L6.91,82.53 L6.91,82.53z" style="fill: rgb(196, 22, 22);"/>
  </g>
</svg>